<svg width="20" height="22" viewBox="0 0 20 22" fill="none" xmlns="http://www.w3.org/2000/svg">
<g id="Group 48096381">
<path id="Vector" d="M17.3 14.5192H18.35H18.3502C18.4816 14.5193 18.6109 14.5495 18.7292 14.6071C18.8474 14.6646 18.9513 14.7478 19.0346 14.8502C19.118 14.9525 19.179 15.0718 19.2144 15.1996C19.2497 15.3274 19.2589 15.4614 19.2413 15.5929L19.2413 15.5931L18.5913 20.4392L18.5913 20.4394C18.5616 20.6598 18.4579 20.8645 18.2954 21.0146C18.1324 21.165 17.9212 21.25 17.7 21.25L17.3 14.5192ZM17.3 14.5192V13.3846C17.3 12.4988 16.6197 11.75 15.75 11.75H13.15C12.2803 11.75 11.6 12.4988 11.6 13.3846V14.5192L10.55 14.5192L10.5497 14.5192C10.4183 14.5194 10.289 14.5496 10.1707 14.6072C10.0525 14.6648 9.94848 14.7481 9.86514 14.8505C9.78184 14.9528 9.7209 15.0721 9.68557 15.1998C9.65025 15.3275 9.64115 15.4615 9.65871 15.5929L9.65872 15.5931L10.3087 20.4392L10.3087 20.4394C10.3384 20.6598 10.4421 20.8645 10.6046 21.0146C10.7676 21.165 10.9788 21.25 11.2 21.25C11.2 21.25 11.2 21.25 11.2 21.25H17.7L17.3 14.5192ZM6 13.8269H5.75V14.0769V21V21.25H6H7.3H7.55V21V14.0769V13.8269H7.3H6ZM13.4 13.6346H15.5V14.5192H13.4V13.6346ZM17.3148 16.4038L16.9177 19.3654H11.9823L11.5852 16.4038H17.3148Z" fill="#E34E3B" stroke="#E34E3B" stroke-width="0.5"/>
<path id="Vector_2" d="M11.3473 12.6766L11.1574 12.8316L10.1013 13.6937L9.9039 13.8548L9.74657 13.6543L8.39348 11.9302L8.37161 11.9023L8.35834 11.8695L7.24542 9.11361L7.24433 9.11091L7.24435 9.1109C7.17821 8.94148 7.02243 8.83621 6.8494 8.83621H3.02963C2.91807 8.83621 2.81009 8.88134 2.72971 8.96327C2.64917 9.04537 2.60309 9.15773 2.60309 9.27586V13.8534H4.38272H4.63272V14.1034V21V21.25H4.38272H3.02963H2.77963V21V15.7328H2.35309C1.46429 15.7328 0.75 14.9977 0.75 14.1034V9.27586C0.75 8.00165 1.76806 6.9569 3.02963 6.9569H6.84898H6.8494V7.2069C7.25541 7.20551 7.65241 7.32887 7.98863 7.56089C8.32485 7.7929 8.58469 8.12281 8.73425 8.50759L11.3473 12.6766ZM11.3473 12.6766L11.196 12.4836L9.92916 10.8684L8.96727 8.41701C8.96721 8.41687 8.96716 8.41673 8.96711 8.41659L11.3473 12.6766ZM5.05927 0.75C3.42424 0.75 2.10309 2.10372 2.10309 3.75862C2.10309 5.41353 3.42424 6.76724 5.05927 6.76724C6.69429 6.76724 8.01544 5.41353 8.01544 3.75862C8.01544 2.10372 6.69429 0.75 5.05927 0.75ZM5.05927 4.88793C4.45561 4.88793 3.95618 4.38578 3.95618 3.75862C3.95618 3.13146 4.45561 2.62931 5.05927 2.62931C5.66292 2.62931 6.16235 3.13146 6.16235 3.75862C6.16235 4.38578 5.66292 4.88793 5.05927 4.88793Z" fill="#E34E3B" stroke="#E34E3B" stroke-width="0.5"/>
</g>
</svg>
