<svg width="200" height="244" viewBox="0 0 200 244" fill="none" xmlns="http://www.w3.org/2000/svg">
<path fill-rule="evenodd" clip-rule="evenodd" d="M106.288 164.987L92.7076 164.997L95.675 141.826C91.7783 138.152 84.8433 133.614 89.6807 124.625C92.7422 118.936 102.615 116.195 107.966 123.315C114.958 132.618 106.501 136.421 104.168 140.493C101.497 145.158 105.6 158.219 106.289 164.987H106.288ZM45.8174 109.808L45.8164 124.473C45.8308 197.128 152.712 205.436 152.694 119.14C152.687 88.0909 148.948 91.1994 114.814 91.1994C100.19 91.1994 85.426 91.3424 70.8177 91.0717C54.0609 90.7607 45.8634 93.0436 45.8183 109.808H45.8174Z" fill="#222222"/>
<path fill-rule="evenodd" clip-rule="evenodd" d="M50.3794 168.864C38.3573 156.063 29.5138 142.742 25.3551 124.956C20.7701 105.348 30.0524 101.722 0.392219 104.748C-3.15882 130.563 18.0985 167.87 36.0274 187.25C47.4975 199.649 84.9893 235.412 98.8143 243.481C109.249 240.528 154.129 196.253 162.123 187.78C176.329 172.726 202.597 135.105 197.45 104.638L177.082 105.525C174.333 100.739 178.822 137.644 147.809 169.467C141.333 176.112 105.01 210.95 98.8143 212.677C90.7244 208.034 57.877 176.846 50.3794 168.863V168.864Z" fill="#222222"/>
<path fill-rule="evenodd" clip-rule="evenodd" d="M0.298196 96.2953L22.4809 96.6553C27.951 81.3443 23.7452 68.9123 44.8326 45.1686C56.5148 32.0147 72.5872 23.8298 95.3728 21.0438L95.6185 0.0860788C67.2448 -1.37792 42.7283 16.143 29.9891 28.9821C17.8883 41.1779 -1.84163 70.3475 0.297246 96.2963L0.298196 96.2953Z" fill="#222222"/>
<path fill-rule="evenodd" clip-rule="evenodd" d="M176.027 96.6509L198.212 96.4772C200.636 51.649 149.248 -4.60028 102.917 0.479082C102.485 28.3076 99.9537 17.641 120.671 24.1114C131.005 27.3389 140.701 33.2237 147.895 39.3908C169.967 58.3114 170.395 75.3773 176.027 96.6509Z" fill="#222222"/>
<path fill-rule="evenodd" clip-rule="evenodd" d="M52.1344 81.8372L75.6775 81.915C76.3821 71.8263 76.3504 66.217 81.0938 60.1326C89.9325 48.795 106.691 47.1831 117.088 59.545C123.426 67.0801 121.058 71.7034 123.443 81.1316C124.562 81.5357 145.783 85.3594 147.762 78.8689C149.323 73.7473 145.108 60.4906 142.988 56.2993C121.879 14.5738 49.1632 21.4935 52.1354 81.8372H52.1344Z" fill="#222222"/>
</svg>
