<svg width="1002" height="244" viewBox="0 0 1002 244" fill="none" xmlns="http://www.w3.org/2000/svg">
<path fill-rule="evenodd" clip-rule="evenodd" d="M106.288 164.987L92.7076 164.997L95.675 141.826C91.7783 138.152 84.8433 133.614 89.6807 124.625C92.7422 118.936 102.615 116.195 107.966 123.315C114.958 132.618 106.501 136.421 104.168 140.493C101.497 145.158 105.6 158.219 106.289 164.987H106.288ZM45.8174 109.808L45.8164 124.473C45.8308 197.128 152.712 205.436 152.694 119.14C152.687 88.0909 148.948 91.1994 114.814 91.1994C100.19 91.1994 85.426 91.3424 70.8177 91.0717C54.0609 90.7607 45.8634 93.0436 45.8183 109.808H45.8174Z" fill="#222222"/>
<path fill-rule="evenodd" clip-rule="evenodd" d="M50.3794 168.864C38.3573 156.063 29.5138 142.742 25.3551 124.956C20.7701 105.348 30.0524 101.722 0.392219 104.748C-3.15882 130.563 18.0985 167.87 36.0274 187.25C47.4975 199.649 84.9893 235.412 98.8143 243.481C109.249 240.528 154.129 196.253 162.123 187.78C176.329 172.726 202.597 135.105 197.45 104.638L177.082 105.525C174.333 100.739 178.822 137.644 147.809 169.467C141.333 176.112 105.01 210.95 98.8143 212.677C90.7244 208.034 57.877 176.846 50.3794 168.863V168.864Z" fill="#222222"/>
<path fill-rule="evenodd" clip-rule="evenodd" d="M840.412 71.828L806.145 71.6091L806.286 168.526L827.219 167.983C827.728 156.834 827.349 145.029 827.363 133.804C827.371 127.768 827.193 122.486 826.867 116.473C825.565 92.4286 826.65 102.398 830.413 99.2475L832.881 106.785C833.825 112.511 859.083 160.704 864.266 169.279L898.385 169.397L898.815 70.46L875.547 70.3467L875.303 134.749C872.096 132.857 871.725 132.195 869.329 127.213C867.645 123.712 866.893 122.263 865.349 119.253L840.412 71.828Z" fill="#222222"/>
<path fill-rule="evenodd" clip-rule="evenodd" d="M1000.79 164.79L1001.1 112.088L961.174 112.13L961.514 129.807C967.821 129.807 972.961 128.794 978.784 131.463C979.602 154.164 979.258 145.366 977.143 147.703C964.91 148.767 956.543 149.569 949.959 141.206C940.9 129.698 940.485 97.7348 960.744 91.9902C973.528 88.3652 982.126 93.844 992.037 95.2724C994.885 90.6462 999.351 80.3146 999.633 75.146C984.575 67.2711 956.17 67.3911 941.101 74.8916C907.481 91.6273 908.834 150.869 941.196 165.961C956.457 173.078 986.421 171.634 1000.79 164.79H1000.79Z" fill="#222222"/>
<path fill-rule="evenodd" clip-rule="evenodd" d="M213.672 141.605L213.641 164.327C238.534 174.581 275.172 173.347 282.006 147.777C293.18 105.97 232.749 111.239 242.372 93.4555C249.677 85.5797 267.774 94.5652 275.516 96.035L282.838 76.6238C271.973 68.7835 245.284 67.2532 232.166 72.4305C218.091 77.986 207.815 94.8129 218.055 113.207C226.002 127.483 250.114 130.322 254.938 137.829C261.904 148.668 245.596 149.365 237.476 148.295C228.092 147.058 220.812 142.577 213.672 141.604L213.671 141.606L213.672 141.605Z" fill="#222222"/>
<path fill-rule="evenodd" clip-rule="evenodd" d="M717.52 181.653L717.543 201.419C751.819 208.705 760.136 186.876 768.75 162.56C773.573 148.946 792.778 103.015 793.661 92.6143L768.064 92.6066L753.02 141.947L738.348 92.933L711.641 92.5029C712.225 100.581 726.837 133.829 730.534 143.245C732.333 147.828 739.854 165.145 739.794 168.45C739.569 180.606 728.418 180.93 717.52 181.654V181.653Z" fill="#222222"/>
<path fill-rule="evenodd" clip-rule="evenodd" d="M319.736 150.251C316.03 137.019 325.343 135.661 337.866 136.042C337.876 149.004 332.476 155.288 319.736 150.251ZM300.061 97.812L306.577 115.222C315.336 113.738 340.901 101.965 336.947 121.076C313.303 122.682 287.134 123.134 292.147 152.173C295.779 173.216 322.323 175.171 334.738 164.384C338.719 160.925 336.326 161.138 341.45 160.517L345.991 169.156L363.727 169.399C365.034 159.372 364.145 144.259 364.15 133.803C364.157 121.426 365.464 110.248 358.798 101.821C346.114 85.7842 318.814 91.1851 300.061 97.8111V97.812Z" fill="#222222"/>
<path fill-rule="evenodd" clip-rule="evenodd" d="M595.356 165.01L595.646 143.584C586.212 143.485 576.701 152.285 562.34 147.496C543.681 141.274 544.438 102.405 559.671 93.363C571.572 86.2984 583.018 95.6555 592.088 95.9531C594.489 90.8488 598.83 80.693 598.865 75.2344C581.042 69.5858 562.536 64.9183 544.058 75.1096C513.322 92.0623 513.94 147.867 541.576 164.336C556.546 173.257 579.047 172.165 595.357 165.009H595.356V165.01Z" fill="#222222"/>
<path fill-rule="evenodd" clip-rule="evenodd" d="M462.253 120.912C461.264 105.744 485.679 105.422 483.503 121.086L478.768 121.16L468.101 121.213L462.253 120.911V120.912ZM503.107 165.159L503.161 146.712C498.211 147.643 462.302 161.793 461.586 137.945L507.737 137.613C515.056 77.9499 450.118 82.3352 438.016 111.675C430.53 129.826 434.793 152.961 448.246 162.977C463.434 174.284 486.07 171.799 503.107 165.159Z" fill="#222222"/>
<path fill-rule="evenodd" clip-rule="evenodd" d="M383.551 112.377C386.266 114.541 385.521 108.712 385.941 116.474L385.943 168.407L410.567 169.006L410.651 116.474C411.003 108.753 410.4 114.811 412.763 112.432L427.007 112.398L427.226 92.5909L411.434 92.3048C411.346 87.5903 412.066 85.8642 413.303 83.1781L426.771 82.8373L430.133 66.3042C421.648 62.6812 406.39 61.3141 397.352 65.6725C386.695 70.8124 387.076 79.8383 385.068 93.4348L375.099 99.4712L374.914 112.043L383.55 112.377H383.551Z" fill="#222222"/>
<path fill-rule="evenodd" clip-rule="evenodd" d="M651.216 101.961L651.27 112.014C656.494 112.661 659.62 111.752 660.463 115.14C660.474 129.232 657.708 152.595 665.511 162.977C674.024 174.303 694.515 170.987 707.24 166.609L707.308 147.823C700.462 148.618 695.506 150.178 689.104 148.571C685.737 141.487 687.056 120.964 687.219 112.847L706.195 112.199L706.202 93.0573L687.277 92.3248L687.025 77.415L669.4 77.6435C663.322 95.5197 663.421 92.2231 651.215 101.962L651.216 101.961Z" fill="#222222"/>
<path fill-rule="evenodd" clip-rule="evenodd" d="M0.298196 96.2953L22.4809 96.6553C27.951 81.3443 23.7452 68.9123 44.8326 45.1686C56.5148 32.0147 72.5872 23.8298 95.3728 21.0438L95.6185 0.0860788C67.2448 -1.37792 42.7283 16.143 29.9891 28.9821C17.8883 41.1779 -1.84163 70.3475 0.297246 96.2963L0.298196 96.2953Z" fill="#222222"/>
<path fill-rule="evenodd" clip-rule="evenodd" d="M176.027 96.6509L198.212 96.4772C200.636 51.649 149.248 -4.60028 102.917 0.479082C102.485 28.3076 99.9537 17.641 120.671 24.1114C131.005 27.3389 140.701 33.2237 147.895 39.3908C169.967 58.3114 170.395 75.3773 176.027 96.6509Z" fill="#222222"/>
<path fill-rule="evenodd" clip-rule="evenodd" d="M52.1344 81.8372L75.6775 81.915C76.3821 71.8263 76.3504 66.217 81.0938 60.1326C89.9325 48.795 106.691 47.1831 117.088 59.545C123.426 67.0801 121.058 71.7034 123.443 81.1316C124.562 81.5357 145.783 85.3594 147.762 78.8689C149.323 73.7473 145.108 60.4906 142.988 56.2993C121.879 14.5738 49.1632 21.4935 52.1354 81.8372H52.1344Z" fill="#222222"/>
<path fill-rule="evenodd" clip-rule="evenodd" d="M613.879 168.198L637.357 168.127L637.302 93.5088L613.742 93.8208L613.879 168.198Z" fill="#222222"/>
<path fill-rule="evenodd" clip-rule="evenodd" d="M620.877 62.3158C604.526 65.9014 609.695 88.9951 630.596 84.5379C644.603 81.5513 643.347 57.3881 620.877 62.3158Z" fill="#222222"/>
</svg>
