<svg width="19" height="19" viewBox="0 0 19 19" fill="none" xmlns="http://www.w3.org/2000/svg">
<path d="M4.75 5.5415H11.0833V7.12484H4.75V5.5415ZM4.75 8.70817H14.25V10.2915H4.75V8.70817ZM4.75 11.8748H7.11708V13.4582H4.75V11.8748Z" fill="#525252"/>
<path d="M11.084 2.375L8.70898 0V1.58333H3.16732C2.74739 1.58333 2.34466 1.75015 2.04773 2.04708C1.7508 2.34401 1.58398 2.74674 1.58398 3.16667V15.8333C1.58398 16.2533 1.7508 16.656 2.04773 16.9529C2.34466 17.2499 2.74739 17.4167 3.16732 17.4167H6.33398V15.8333H3.16732V3.16667H8.70898V4.75L11.084 2.375ZM7.91732 16.625L10.2923 19V17.4167H15.834C16.2539 17.4167 16.6566 17.2499 16.9536 16.9529C17.2505 16.656 17.4173 16.2533 17.4173 15.8333V3.16667C17.4173 2.74674 17.2505 2.34401 16.9536 2.04708C16.6566 1.75015 16.2539 1.58333 15.834 1.58333H12.6673V3.16667H15.834V15.8333H10.2923V14.25L7.91732 16.625Z" fill="#525252"/>
</svg>
