<svg width="17" height="17" viewBox="0 0 17 17" fill="none" xmlns="http://www.w3.org/2000/svg">
<path fill-rule="evenodd" clip-rule="evenodd" d="M1.96875 5.53125V1.96875H5.53125V5.53125H1.96875ZM0.1875 1.375C0.1875 1.06006 0.312611 0.75801 0.535311 0.535311C0.75801 0.312611 1.06006 0.1875 1.375 0.1875H6.125C6.43994 0.1875 6.74199 0.312611 6.96469 0.535311C7.18739 0.75801 7.3125 1.06006 7.3125 1.375V6.125C7.3125 6.43994 7.18739 6.74199 6.96469 6.96469C6.74199 7.18739 6.43994 7.3125 6.125 7.3125H1.375C1.06006 7.3125 0.75801 7.18739 0.535311 6.96469C0.312611 6.74199 0.1875 6.43994 0.1875 6.125V1.375ZM9.6875 1.67188C9.6875 1.43567 9.78133 1.20913 9.94836 1.04211C10.1154 0.875083 10.3419 0.78125 10.5781 0.78125H15.9219C16.1581 0.78125 16.3846 0.875083 16.5516 1.04211C16.7187 1.20913 16.8125 1.43567 16.8125 1.67188C16.8125 1.90808 16.7187 2.13462 16.5516 2.30164C16.3846 2.46867 16.1581 2.5625 15.9219 2.5625H10.5781C10.3419 2.5625 10.1154 2.46867 9.94836 2.30164C9.78133 2.13462 9.6875 1.90808 9.6875 1.67188ZM10.5781 4.9375C10.3419 4.9375 10.1154 5.03133 9.94836 5.19836C9.78133 5.36538 9.6875 5.59192 9.6875 5.82812C9.6875 6.06433 9.78133 6.29087 9.94836 6.45789C10.1154 6.62492 10.3419 6.71875 10.5781 6.71875H15.9219C16.1581 6.71875 16.3846 6.62492 16.5516 6.45789C16.7187 6.29087 16.8125 6.06433 16.8125 5.82812C16.8125 5.59192 16.7187 5.36538 16.5516 5.19836C16.3846 5.03133 16.1581 4.9375 15.9219 4.9375H10.5781ZM1.96875 11.4688V15.0312H5.53125V11.4688H1.96875ZM1.375 9.6875C1.06006 9.6875 0.75801 9.81261 0.535311 10.0353C0.312611 10.258 0.1875 10.5601 0.1875 10.875V15.625C0.1875 15.9399 0.312611 16.242 0.535311 16.4647C0.75801 16.6874 1.06006 16.8125 1.375 16.8125H6.125C6.43994 16.8125 6.74199 16.6874 6.96469 16.4647C7.18739 16.242 7.3125 15.9399 7.3125 15.625V10.875C7.3125 10.5601 7.18739 10.258 6.96469 10.0353C6.74199 9.81261 6.43994 9.6875 6.125 9.6875H1.375ZM10.5781 10.2812C10.3419 10.2812 10.1154 10.3751 9.94836 10.5421C9.78133 10.7091 9.6875 10.9357 9.6875 11.1719C9.6875 11.4081 9.78133 11.6346 9.94836 11.8016C10.1154 11.9687 10.3419 12.0625 10.5781 12.0625H15.9219C16.1581 12.0625 16.3846 11.9687 16.5516 11.8016C16.7187 11.6346 16.8125 11.4081 16.8125 11.1719C16.8125 10.9357 16.7187 10.7091 16.5516 10.5421C16.3846 10.3751 16.1581 10.2812 15.9219 10.2812H10.5781ZM10.5781 14.4375C10.3419 14.4375 10.1154 14.5313 9.94836 14.6984C9.78133 14.8654 9.6875 15.0919 9.6875 15.3281C9.6875 15.5643 9.78133 15.7909 9.94836 15.9579C10.1154 16.1249 10.3419 16.2188 10.5781 16.2188H15.9219C16.1581 16.2188 16.3846 16.1249 16.5516 15.9579C16.7187 15.7909 16.8125 15.5643 16.8125 15.3281C16.8125 15.0919 16.7187 14.8654 16.5516 14.6984C16.3846 14.5313 16.1581 14.4375 15.9219 14.4375H10.5781Z" fill="#525252"/>
</svg>
