<svg width="19" height="20" viewBox="0 0 19 20" fill="none" xmlns="http://www.w3.org/2000/svg">
<path fill-rule="evenodd" clip-rule="evenodd" d="M2.96875 6.61621V3.05371H6.53125V6.61621H2.96875ZM1.1875 2.45996C1.1875 2.14502 1.31261 1.84297 1.53531 1.62027C1.75801 1.39757 2.06006 1.27246 2.375 1.27246H7.125C7.43994 1.27246 7.74199 1.39757 7.96469 1.62027C8.18739 1.84297 8.3125 2.14502 8.3125 2.45996V7.20996C8.3125 7.52491 8.18739 7.82695 7.96469 8.04965C7.74199 8.27235 7.43994 8.39746 7.125 8.39746H2.375C2.06006 8.39746 1.75801 8.27235 1.53531 8.04965C1.31261 7.82695 1.1875 7.52491 1.1875 7.20996V2.45996ZM10.6875 2.75684C10.6875 2.52063 10.7813 2.29409 10.9484 2.12707C11.1154 1.96004 11.3419 1.86621 11.5781 1.86621H16.9219C17.1581 1.86621 17.3846 1.96004 17.5516 2.12707C17.7187 2.29409 17.8125 2.52063 17.8125 2.75684C17.8125 2.99304 17.7187 3.21958 17.5516 3.3866C17.3846 3.55363 17.1581 3.64746 16.9219 3.64746H11.5781C11.3419 3.64746 11.1154 3.55363 10.9484 3.3866C10.7813 3.21958 10.6875 2.99304 10.6875 2.75684ZM11.5781 6.02246C11.3419 6.02246 11.1154 6.11629 10.9484 6.28332C10.7813 6.45034 10.6875 6.67688 10.6875 6.91309C10.6875 7.14929 10.7813 7.37583 10.9484 7.54285C11.1154 7.70988 11.3419 7.80371 11.5781 7.80371H16.9219C17.1581 7.80371 17.3846 7.70988 17.5516 7.54285C17.7187 7.37583 17.8125 7.14929 17.8125 6.91309C17.8125 6.67688 17.7187 6.45034 17.5516 6.28332C17.3846 6.11629 17.1581 6.02246 16.9219 6.02246H11.5781ZM2.96875 12.5537V16.1162H6.53125V12.5537H2.96875ZM2.375 10.7725C2.06006 10.7725 1.75801 10.8976 1.53531 11.1203C1.31261 11.343 1.1875 11.645 1.1875 11.96V16.71C1.1875 17.0249 1.31261 17.327 1.53531 17.5497C1.75801 17.7724 2.06006 17.8975 2.375 17.8975H7.125C7.43994 17.8975 7.74199 17.7724 7.96469 17.5497C8.18739 17.327 8.3125 17.0249 8.3125 16.71V11.96C8.3125 11.645 8.18739 11.343 7.96469 11.1203C7.74199 10.8976 7.43994 10.7725 7.125 10.7725H2.375ZM11.5781 11.3662C11.3419 11.3662 11.1154 11.46 10.9484 11.6271C10.7813 11.7941 10.6875 12.0206 10.6875 12.2568C10.6875 12.493 10.7813 12.7196 10.9484 12.8866C11.1154 13.0536 11.3419 13.1475 11.5781 13.1475H16.9219C17.1581 13.1475 17.3846 13.0536 17.5516 12.8866C17.7187 12.7196 17.8125 12.493 17.8125 12.2568C17.8125 12.0206 17.7187 11.7941 17.5516 11.6271C17.3846 11.46 17.1581 11.3662 16.9219 11.3662H11.5781ZM11.5781 15.5225C11.3419 15.5225 11.1154 15.6163 10.9484 15.7833C10.7813 15.9503 10.6875 16.1769 10.6875 16.4131C10.6875 16.6493 10.7813 16.8758 10.9484 17.0429C11.1154 17.2099 11.3419 17.3037 11.5781 17.3037H16.9219C17.1581 17.3037 17.3846 17.2099 17.5516 17.0429C17.7187 16.8758 17.8125 16.6493 17.8125 16.4131C17.8125 16.1769 17.7187 15.9503 17.5516 15.7833C17.3846 15.6163 17.1581 15.5225 16.9219 15.5225H11.5781Z" fill="#E34E3B"/>
</svg>
